<?xml version="1.0" encoding="utf-8"?>
<!-- Generator: Adobe Illustrator 28.0.0, SVG Export Plug-In . SVG Version: 6.00 Build 0)  -->
<svg version="1.1" id="Layer_1" xmlns="http://www.w3.org/2000/svg" xmlns:xlink="http://www.w3.org/1999/xlink" x="0px" y="0px"
	 viewBox="0 0 1011.4 161.6" style="enable-background:new 0 0 1011.4 161.6;" xml:space="preserve">
<style type="text/css">
	.st0{fill:#070909;}
	.st1{fill-rule:evenodd;clip-rule:evenodd;}
</style>
<g>
	<polygon class="st0" points="318.3,115 311.9,115 311.9,132.8 330,132.8 330,157.6 259.3,157.6 259.3,132.8 268.8,132.8 
		268.8,72.4 259.3,72.4 259.3,47.6 374.9,47.6 374.9,76.7 339.4,76.7 339.4,72.4 311.9,72.4 311.9,90.3 318.3,90.3 318.3,86 
		353.6,86 353.6,119.4 318.3,119.4 	"/>
	<polygon class="st0" points="511.4,139.9 486.3,157.6 417.1,157.6 392,140.1 392,72.4 382.6,72.4 382.6,47.6 444.6,47.6 
		444.6,72.4 435.2,72.4 435.2,129.4 440.3,132.8 463.3,132.8 468.2,129.4 468.2,72.4 458.8,72.4 458.8,47.6 520.8,47.6 520.8,72.2 
		511.4,72.2 	"/>
	<polygon class="st0" points="602.6,115.3 556.4,115.3 531.3,97.7 531.3,65.3 556.4,47.6 625.6,47.6 650.7,65.3 650.7,86.9 
		607.5,86.9 607.5,75.9 602.6,72.4 579.6,72.4 574.5,75.9 574.5,87 579.6,90.5 625.6,90.5 650.7,108.1 650.7,140.1 625.6,157.6 
		556.4,157.6 531.3,140.1 531.3,119 574.5,119 574.5,129.3 579.6,132.8 602.6,132.8 607.5,129.4 607.5,118.8 	"/>
	<polygon class="st0" points="723.2,157.6 661.2,157.6 661.2,132.8 670.6,132.8 670.6,72.4 661.2,72.4 661.2,47.6 723.2,47.6 
		723.2,72.4 713.8,72.4 713.8,132.8 723.2,132.8 	"/>
	<path class="st0" d="M809.9,75.9l-4.9-3.6h-23l-5.1,3.6v53.4l5.1,3.4h23l4.9-3.4V75.9z M733.8,65.3l25.1-17.7H828l25.1,17.7v74.8
		L828,157.6h-69.2l-25.1-17.5V65.3z"/>
	<polygon class="st0" points="959.4,157.6 917.2,108.4 917.2,132.8 926.6,132.8 926.6,157.6 864.6,157.6 864.6,132.8 874,132.8 
		874,72.4 864.6,72.4 864.6,47.6 915.7,47.6 958.8,98 958.8,72.4 949.4,72.4 949.4,47.6 1011.4,47.6 1011.4,72.4 1002,72.4 
		1002,132.8 1011.4,132.8 1011.4,157.6 	"/>
	<polygon points="318.3,115 311.9,115 311.9,132.8 330,132.8 330,157.6 259.3,157.6 259.3,132.8 268.8,132.8 268.8,72.4 259.3,72.4 
		259.3,47.6 374.9,47.6 374.9,76.7 339.4,76.7 339.4,72.4 311.9,72.4 311.9,90.3 318.3,90.3 318.3,86 353.6,86 353.6,119.4 
		318.3,119.4 	"/>
	<polygon points="511.4,139.9 486.3,157.6 417.1,157.6 392,140.1 392,72.4 382.6,72.4 382.6,47.6 444.6,47.6 444.6,72.4 435.2,72.4 
		435.2,129.4 440.3,132.8 463.3,132.8 468.2,129.4 468.2,72.4 458.8,72.4 458.8,47.6 520.8,47.6 520.8,72.2 511.4,72.2 	"/>
	<polygon points="602.6,115.3 556.4,115.3 531.3,97.7 531.3,65.3 556.4,47.6 625.6,47.6 650.7,65.3 650.7,86.9 607.5,86.9 
		607.5,75.9 602.6,72.4 579.6,72.4 574.5,75.9 574.5,87 579.6,90.5 625.6,90.5 650.7,108.1 650.7,140.1 625.6,157.6 556.4,157.6 
		531.3,140.1 531.3,119 574.5,119 574.5,129.3 579.6,132.8 602.6,132.8 607.5,129.4 607.5,118.8 	"/>
	<polygon points="723.2,157.6 661.2,157.6 661.2,132.8 670.6,132.8 670.6,72.4 661.2,72.4 661.2,47.6 723.2,47.6 723.2,72.4 
		713.8,72.4 713.8,132.8 723.2,132.8 	"/>
	<path d="M809.9,75.9l-4.9-3.6h-23l-5.1,3.6v53.4l5.1,3.4h23l4.9-3.4V75.9z M733.8,65.3l25.1-17.7H828l25.1,17.7v74.8L828,157.6
		h-69.2l-25.1-17.5V65.3z"/>
	<polygon points="959.4,157.6 917.2,108.4 917.2,132.8 926.6,132.8 926.6,157.6 864.6,157.6 864.6,132.8 874,132.8 874,72.4 
		864.6,72.4 864.6,47.6 915.7,47.6 958.8,98 958.8,72.4 949.4,72.4 949.4,47.6 1011.4,47.6 1011.4,72.4 1002,72.4 1002,132.8 
		1011.4,132.8 1011.4,157.6 	"/>
	<polygon class="st1" points="24.1,161.6 203.6,161.6 227.7,62.9 194.5,103.6 203.6,161.6 174.5,33.2 147.2,70.7 175.4,161.6 114,0 
		87.1,69.6 147.7,161.6 53.3,33.3 38,100.2 79.7,161.6 0,62.9 	"/>
</g>
</svg>
