<?xml version="1.0" encoding="utf-8"?>
<!-- Generator: Adobe Illustrator 28.0.0, SVG Export Plug-In . SVG Version: 6.00 Build 0)  -->
<svg version="1.1" id="Layer_1" xmlns="http://www.w3.org/2000/svg" xmlns:xlink="http://www.w3.org/1999/xlink" x="0px" y="0px"
	 viewBox="0 0 802.9 599.5" style="enable-background:new 0 0 802.9 599.5;" xml:space="preserve">
<style type="text/css">
	.st0{fill:#070909;}
	.st1{fill-rule:evenodd;clip-rule:evenodd;}
</style>
<g>
	<polygon class="st0" points="91.7,440.3 85.3,440.3 85.3,458.1 103.4,458.1 103.4,482.9 32.7,482.9 32.7,458.1 42.1,458.1 
		42.1,397.7 32.7,397.7 32.7,372.8 148.2,372.8 148.2,402 112.8,402 112.8,397.7 85.3,397.7 85.3,415.6 91.7,415.6 91.7,411.2 
		126.9,411.2 126.9,444.6 91.7,444.6 	"/>
	<polygon class="st0" points="284.7,465.2 259.6,482.9 190.4,482.9 165.4,465.3 165.4,397.7 156,397.7 156,372.8 218,372.8 
		218,397.7 208.5,397.7 208.5,454.7 213.6,458.1 236.6,458.1 241.5,454.7 241.5,397.7 232.1,397.7 232.1,372.8 294.1,372.8 
		294.1,397.5 284.7,397.5 	"/>
	<polygon class="st0" points="375.9,440.5 329.7,440.5 304.7,423 304.7,390.5 329.7,372.8 398.9,372.8 424,390.5 424,412.2 
		380.8,412.2 380.8,401.2 375.9,397.7 352.9,397.7 347.8,401.2 347.8,412.3 352.9,415.7 398.9,415.7 424,433.4 424,465.3 
		398.9,482.9 329.7,482.9 304.7,465.3 304.7,444.2 347.8,444.2 347.8,454.5 352.9,458.1 375.9,458.1 380.8,454.7 380.8,444.1 	"/>
	<polygon class="st0" points="496.6,482.9 434.6,482.9 434.6,458.1 444,458.1 444,397.7 434.6,397.7 434.6,372.8 496.6,372.8 
		496.6,397.7 487.1,397.7 487.1,458.1 496.6,458.1 	"/>
	<path class="st0" d="M583.3,401.2l-4.9-3.6h-23l-5.1,3.6v53.4l5.1,3.4h23l4.9-3.4V401.2z M507.1,390.5l25.1-17.7h69.2l25.1,17.7
		v74.8l-25.1,17.5h-69.2l-25.1-17.5V390.5z"/>
	<polygon class="st0" points="732.8,482.9 690.5,433.7 690.5,458.1 700,458.1 700,482.9 637.9,482.9 637.9,458.1 647.4,458.1 
		647.4,397.7 637.9,397.7 637.9,372.8 689,372.8 732.2,423.2 732.2,397.7 722.8,397.7 722.8,372.8 784.8,372.8 784.8,397.7 
		775.4,397.7 775.4,458.1 784.8,458.1 784.8,482.9 	"/>
	<polygon points="91.7,440.3 85.3,440.3 85.3,458.1 103.4,458.1 103.4,482.9 32.7,482.9 32.7,458.1 42.1,458.1 42.1,397.7 
		32.7,397.7 32.7,372.8 148.2,372.8 148.2,402 112.8,402 112.8,397.7 85.3,397.7 85.3,415.6 91.7,415.6 91.7,411.2 126.9,411.2 
		126.9,444.6 91.7,444.6 	"/>
	<polygon points="284.7,465.2 259.6,482.9 190.4,482.9 165.4,465.3 165.4,397.7 156,397.7 156,372.8 218,372.8 218,397.7 
		208.5,397.7 208.5,454.7 213.6,458.1 236.6,458.1 241.5,454.7 241.5,397.7 232.1,397.7 232.1,372.8 294.1,372.8 294.1,397.5 
		284.7,397.5 	"/>
	<polygon points="375.9,440.5 329.7,440.5 304.7,423 304.7,390.5 329.7,372.8 398.9,372.8 424,390.5 424,412.2 380.8,412.2 
		380.8,401.2 375.9,397.7 352.9,397.7 347.8,401.2 347.8,412.3 352.9,415.7 398.9,415.7 424,433.4 424,465.3 398.9,482.9 
		329.7,482.9 304.7,465.3 304.7,444.2 347.8,444.2 347.8,454.5 352.9,458.1 375.9,458.1 380.8,454.7 380.8,444.1 	"/>
	<polygon points="496.6,482.9 434.6,482.9 434.6,458.1 444,458.1 444,397.7 434.6,397.7 434.6,372.8 496.6,372.8 496.6,397.7 
		487.1,397.7 487.1,458.1 496.6,458.1 	"/>
	<path d="M583.3,401.2l-4.9-3.6h-23l-5.1,3.6v53.4l5.1,3.4h23l4.9-3.4V401.2z M507.1,390.5l25.1-17.7h69.2l25.1,17.7v74.8
		l-25.1,17.5h-69.2l-25.1-17.5V390.5z"/>
	<polygon points="732.8,482.9 690.5,433.7 690.5,458.1 700,458.1 700,482.9 637.9,482.9 637.9,458.1 647.4,458.1 647.4,397.7 
		637.9,397.7 637.9,372.8 689,372.8 732.2,423.2 732.2,397.7 722.8,397.7 722.8,372.8 784.8,372.8 784.8,397.7 775.4,397.7 
		775.4,458.1 784.8,458.1 784.8,482.9 	"/>
	<polygon points="111.1,513.4 111.1,519.7 123.6,519.7 123.6,525.9 111.1,525.9 111.1,535.6 103,535.6 103,507.2 125.4,507.2 
		125.4,513.4 	"/>
	<rect x="156.4" y="507.2" width="8.1" height="28.5"/>
	<path d="M216.5,520.8h7.1v11.8c-1.6,1.2-3.5,2.1-5.6,2.7c-2.1,0.6-4.2,0.9-6.3,0.9c-3,0-5.7-0.6-8.1-1.9c-2.4-1.3-4.3-3-5.6-5.3
		s-2-4.8-2-7.6s0.7-5.4,2-7.6s3.2-4,5.7-5.3s5.1-1.9,8.2-1.9c2.7,0,5,0.4,7.2,1.3c2.1,0.9,3.9,2.2,5.3,3.9l-5.1,4.6
		c-1.9-2.1-4.2-3.2-6.9-3.2c-2.4,0-4.4,0.7-5.9,2.2c-1.5,1.5-2.2,3.5-2.2,5.9c0,1.6,0.3,3,1,4.2c0.7,1.2,1.6,2.2,2.8,2.9
		c1.2,0.7,2.6,1,4.2,1c1.5,0,3-0.3,4.4-0.9V520.8z"/>
	<polygon points="283.1,507.2 283.1,535.6 275.1,535.6 275.1,524.5 264.1,524.5 264.1,535.6 256,535.6 256,507.2 264.1,507.2 
		264.1,517.9 275.1,517.9 275.1,507.2 	"/>
	<polygon points="322.1,513.6 313.4,513.6 313.4,507.2 338.9,507.2 338.9,513.6 330.2,513.6 330.2,535.6 322.1,535.6 	"/>
	<polygon points="408.3,507.2 416.3,507.2 416.3,529.3 429.9,529.3 429.9,535.6 408.3,535.6 	"/>
	<polygon points="483.2,529.4 483.2,535.6 460.3,535.6 460.3,507.2 482.7,507.2 482.7,513.4 468.3,513.4 468.3,518.2 481,518.2 
		481,524.2 468.3,524.2 468.3,529.4 	"/>
	<path d="M531.6,524.2l-3.7-9.1l-3.7,9.1H531.6z M534,530.1h-12l-2.2,5.5h-8.2l12.6-28.5h7.9l12.6,28.5h-8.4L534,530.1z"/>
	<path d="M592.8,520.8h7.1v11.8c-1.6,1.2-3.5,2.1-5.6,2.7c-2.1,0.6-4.2,0.9-6.3,0.9c-3,0-5.7-0.6-8.1-1.9c-2.4-1.3-4.3-3-5.6-5.3
		s-2-4.8-2-7.6s0.7-5.4,2-7.6s3.2-4,5.7-5.3c2.4-1.3,5.1-1.9,8.2-1.9c2.7,0,5,0.4,7.2,1.3c2.1,0.9,3.9,2.2,5.3,3.9l-5.1,4.6
		c-1.9-2.1-4.2-3.2-6.9-3.2c-2.4,0-4.4,0.7-5.9,2.2c-1.5,1.5-2.2,3.5-2.2,5.9c0,1.6,0.3,3,1,4.2c0.7,1.2,1.6,2.2,2.8,2.9
		c1.2,0.7,2.6,1,4.2,1c1.5,0,3-0.3,4.4-0.9V520.8z"/>
	<path d="M645.5,536.2c-4.2,0-7.5-1.2-9.9-3.5c-2.3-2.3-3.5-5.6-3.5-9.8v-15.8h8.1v15.5c0,4.6,1.8,6.8,5.4,6.8
		c3.6,0,5.4-2.3,5.4-6.8v-15.5h7.9v15.8c0,4.2-1.2,7.5-3.5,9.8C653,535.1,649.7,536.2,645.5,536.2z"/>
	<polygon points="714.4,529.4 714.4,535.6 691.6,535.6 691.6,507.2 713.9,507.2 713.9,513.4 699.5,513.4 699.5,518.2 712.2,518.2 
		712.2,524.2 699.5,524.2 699.5,529.4 	"/>
	<polygon class="st1" points="242.4,340.1 575.3,340.1 619.8,157.1 558.4,232.6 575.3,340.1 521.3,102 470.6,171.5 523,340.1 
		409.1,40.4 359.2,169.6 471.5,340.1 296.4,102.2 268,226.3 345.5,340.1 197.6,157.1 	"/>
</g>
</svg>
